<svg xmlns="http://www.w3.org/2000/svg" viewBox="0 0 820 940" role="img" aria-labelledby="title desc">
  <title id="title">Vista previa de FlowCash</title>
  <desc id="desc">Ilustracion de un movil con paneles financieros de la app FlowCash.</desc>
  <defs>
    <linearGradient id="bg" x1="0%" y1="0%" x2="100%" y2="100%">
      <stop offset="0%" stop-color="#16324e"/>
      <stop offset="55%" stop-color="#1f5f7b"/>
      <stop offset="100%" stop-color="#78d9b7"/>
    </linearGradient>
    <linearGradient id="card" x1="0%" y1="0%" x2="100%" y2="100%">
      <stop offset="0%" stop-color="#31a6c8"/>
      <stop offset="100%" stop-color="#78d9b7"/>
    </linearGradient>
    <filter id="shadow" x="-20%" y="-20%" width="140%" height="140%">
      <feDropShadow dx="0" dy="26" stdDeviation="24" flood-color="#0a1320" flood-opacity="0.28"/>
    </filter>
  </defs>

  <rect width="820" height="940" rx="44" fill="url(#bg)"/>
  <circle cx="130" cy="130" r="90" fill="#ffffff" fill-opacity="0.08"/>
  <circle cx="710" cy="810" r="120" fill="#ffffff" fill-opacity="0.10"/>

  <g filter="url(#shadow)">
    <rect x="180" y="70" width="460" height="800" rx="48" fill="#0e1624"/>
    <rect x="205" y="100" width="410" height="740" rx="38" fill="#f7fbff"/>
    <rect x="350" y="86" width="120" height="10" rx="5" fill="#27364a"/>
  </g>

  <rect x="238" y="150" width="344" height="128" rx="28" fill="url(#card)"/>
  <text x="270" y="194" font-family="Arial, sans-serif" font-size="24" font-weight="700" fill="#effcff">FlowCash</text>
  <text x="270" y="226" font-family="Arial, sans-serif" font-size="18" fill="#d7f6ff">Saldo disponible</text>
  <text x="270" y="264" font-family="Arial, sans-serif" font-size="36" font-weight="700" fill="#ffffff">EUR 2,840</text>

  <rect x="238" y="312" width="164" height="92" rx="24" fill="#ffffff"/>
  <rect x="418" y="312" width="164" height="92" rx="24" fill="#ffffff"/>
  <text x="264" y="346" font-family="Arial, sans-serif" font-size="16" fill="#5b6778">Ingresos</text>
  <text x="264" y="380" font-family="Arial, sans-serif" font-size="28" font-weight="700" fill="#2a9d64">+ 1,950</text>
  <text x="444" y="346" font-family="Arial, sans-serif" font-size="16" fill="#5b6778">Gastos</text>
  <text x="444" y="380" font-family="Arial, sans-serif" font-size="28" font-weight="700" fill="#d64249">- 790</text>

  <rect x="238" y="438" width="344" height="170" rx="28" fill="#ffffff"/>
  <text x="264" y="478" font-family="Arial, sans-serif" font-size="20" font-weight="700" fill="#182033">Resumen mensual</text>
  <rect x="264" y="520" width="34" height="48" rx="12" fill="#d9eef6"/>
  <rect x="316" y="488" width="34" height="80" rx="12" fill="#b8e6db"/>
  <rect x="368" y="462" width="34" height="106" rx="12" fill="#31a6c8"/>
  <rect x="420" y="430" width="34" height="138" rx="12" fill="#78d9b7"/>
  <rect x="472" y="446" width="34" height="122" rx="12" fill="#549ecc"/>
  <rect x="524" y="504" width="34" height="64" rx="12" fill="#dce7f6"/>

  <rect x="238" y="638" width="164" height="146" rx="28" fill="#ffffff"/>
  <rect x="418" y="638" width="164" height="146" rx="28" fill="#ffffff"/>

  <text x="264" y="678" font-family="Arial, sans-serif" font-size="19" font-weight="700" fill="#182033">Ahorro</text>
  <circle cx="320" cy="726" r="34" fill="none" stroke="#dbe8f5" stroke-width="16"/>
  <path d="M320 692 A34 34 0 1 1 292 744" fill="none" stroke="#2a9d64" stroke-width="16" stroke-linecap="round"/>
  <text x="302" y="733" font-family="Arial, sans-serif" font-size="18" font-weight="700" fill="#182033">68%</text>

  <text x="444" y="678" font-family="Arial, sans-serif" font-size="19" font-weight="700" fill="#182033">Top categorias</text>
  <rect x="444" y="704" width="100" height="14" rx="7" fill="#31a6c8"/>
  <rect x="444" y="732" width="82" height="14" rx="7" fill="#78d9b7"/>
  <rect x="444" y="760" width="64" height="14" rx="7" fill="#549ecc"/>
  <text x="552" y="716" font-family="Arial, sans-serif" font-size="13" fill="#5b6778">Casa</text>
  <text x="534" y="744" font-family="Arial, sans-serif" font-size="13" fill="#5b6778">Comida</text>
  <text x="516" y="772" font-family="Arial, sans-serif" font-size="13" fill="#5b6778">Ocio</text>
</svg>
